<svg width="1445" height="720" viewBox="0 0 1445 720" fill="none" xmlns="http://www.w3.org/2000/svg">
<path fill-rule="evenodd" clip-rule="evenodd" d="M841.081 630L821.631 654.545H860.531L841.081 630ZM841.081 634.364L826.818 652.364H855.344L841.081 634.364Z" fill="#0B7077" fill-opacity="0.36"/>
<path fill-rule="evenodd" clip-rule="evenodd" d="M841.081 662.727L821.631 687.273H860.531L841.081 662.727ZM841.081 667.091L826.818 685.091H855.344L841.081 667.091Z" fill="#0B7077" fill-opacity="0.36"/>
<path fill-rule="evenodd" clip-rule="evenodd" d="M841.081 695.455L860.531 720H821.631L841.081 695.455ZM826.818 717.818L841.081 699.818L855.344 717.818H826.818Z" fill="#0B7077" fill-opacity="0.36"/>
<path d="M0 0H1445V670C1445 697.614 1422.61 720 1395 720H50C22.3857 720 0 697.614 0 670V0Z" fill="#D2E6E4"/>
<path fill-rule="evenodd" clip-rule="evenodd" d="M1393.45 610L1374 634.545H1412.9L1393.45 610ZM1393.45 614.364L1379.19 632.364H1407.71L1393.45 614.364Z" fill="#FD661F" fill-opacity="0.7"/>
<path fill-rule="evenodd" clip-rule="evenodd" d="M1393.45 642.727L1374 667.273H1412.9L1393.45 642.727ZM1393.45 647.091L1379.19 665.091H1407.71L1393.45 647.091Z" fill="#FD661F" fill-opacity="0.7"/>
<path fill-rule="evenodd" clip-rule="evenodd" d="M1393.45 675.455L1412.9 700H1374L1393.45 675.455ZM1379.19 697.818L1393.45 679.818L1407.71 697.818H1379.19Z" fill="#FD661F" fill-opacity="0.7"/>
<rect x="130.406" y="591.082" width="20.0003" height="19.9997" transform="rotate(45.33 130.406 591.082)" fill="#0B7077" fill-opacity="0.47"/>
<rect x="130.1" y="619.791" width="20.0003" height="19.9997" transform="rotate(45.33 130.1 619.791)" fill="#0B7077" fill-opacity="0.47"/>
<rect x="129.934" y="648.79" width="20.0003" height="19.9997" transform="rotate(45.33 129.934 648.79)" fill="#0B7077" fill-opacity="0.47"/>
<path fill-rule="evenodd" clip-rule="evenodd" d="M873.45 620L854 644.545H892.9L873.45 620ZM873.45 624.364L859.187 642.364H887.713L873.45 624.364Z" fill="#0B7077" fill-opacity="0.36"/>
<path fill-rule="evenodd" clip-rule="evenodd" d="M873.45 652.727L854 677.273H892.9L873.45 652.727ZM873.45 657.091L859.187 675.091H887.713L873.45 657.091Z" fill="#0B7077" fill-opacity="0.36"/>
<path fill-rule="evenodd" clip-rule="evenodd" d="M873.45 685.455L892.9 710H854L873.45 685.455ZM859.187 707.818L873.45 689.818L887.713 707.818H859.187Z" fill="#0B7077" fill-opacity="0.36"/>
</svg>
